:SAMPLES-PER-SECOND 30
:FULLY-SPECIFIED
:DEGREES
126
root  2.12573 32.5764 -8.2409 -43.1412 -86.4867 39.0339
RightUpLeg  -35.4815 -23.5456 -6.58568
RightLeg  70.8732 -3.80091 -12.9196
RightFoot  -23.4276 0.8015 8.95482
RightToes  -1.33073e-015 0 -3.6325e-017
Spine  28.6509 1.45718 -4.70573
Spine1  -10.9067 0.40459 0.399721
HEad  -19.2687 3.12912 -2.79292
LeftShoulder1  0.202555 8.10309 14.645
LeftArm  -69.8852 -12.7765 -12.5333
LeftForeArm  17.2165 -76.0343 -57.1063
LeftHand  0.366527 6.31196 41.898
RightShoulder  -0.0925276 -6.09521 -5.40263
RightArm  -75.1185 -3.21497 12.0792
RightForeArm  -6.50243 73.8324 48.7162
RightHand  -3.03784 2.86808 -41.1895
LeftUpLeg  -32.423 26.1932 0.688215
LeftLeg  70.6105 3.36676 11.5254
LeftFoot  -28.1614 -1.26656 -9.68834
LeftToes  -4.0021e-011 8.38769e-011 -3.99229e-011
127
root  1.75656 34.0548 -8.73471 -37.2918 -87.1439 33.8593
RightUpLeg  -32.498 -26.0641 -5.4949
RightLeg  64.9627 -3.42109 -8.70787
RightFoot  -18.5575 0.3919 8.36791
RightToes  -1.33073e-015 0 -3.6325e-017
Spine  26.5738 1.0695 -4.58715
Spine1  -12.4231 0.0997711 0.683654
HEad  -14.8943 4.51705 -3.17345
LeftShoulder1  -0.0529109 6.76252 7.62568
LeftArm  -62.3148 -11.7166 -17.1213
LeftForeArm  46.5455 -78.3073 -82.3024
LeftHand  0.339171 6.23984 41.8843
RightShoulder  -0.0960332 -4.59661 0.80934
RightArm  -69.7954 -3.65504 18.448
RightForeArm  29.0777 77.7682 79.1117
RightHand  -3.12073 2.80544 -42.5082
LeftUpLeg  -28.2974 25.9873 2.62782
LeftLeg  62.7551 4.79766 10.6648
LeftFoot  -24.8584 -1.06485 -10.2228
LeftToes  -4.0021e-011 8.38769e-011 -3.99229e-011
128
root  1.40854 35.817 -9.20361 -19.7516 -87.6268 17.495
RightUpLeg  -29.3527 -29.7599 -5.1676
RightLeg  57.9445 0.539894 0.317534
RightFoot  -10.9656 -0.159497 12.5316
RightToes  -1.33073e-015 0 -3.6325e-017
Spine  23.7574 0.531547 -3.90474
Spine1  -12.916 -0.20961 0.999717
HEad  -13.0983 5.67449 -3.82547
LeftShoulder1  -0.106489 4.65842 -1.75706
LeftArm  -55.8327 -7.35916 -18.6154
LeftForeArm  71.9142 -78.2093 -103.994
LeftHand  0.303476 6.14445 41.9429
RightShoulder  0.13019 -2.69274 8.47561
RightArm  -65.443 -5.73763 21.4697
RightForeArm  55.8078 77.8008 102.435
RightHand  -3.09466 2.55661 -43.3802
LeftUpLeg  -23.7105 24.982 4.14993
LeftLeg  52.3486 6.92615 10.0301
LeftFoot  -20.3868 -0.74809 -10.9944
LeftToes  -4.0021e-011 8.38769e-011 -3.99229e-011
129
root  1.07874 37.4922 -9.70856 4.90035 -87.6986 -6.54548
RightUpLeg  -24.4171 -32.165 -6.31652
RightLeg  49.633 6.3412 7.5896
RightFoot  -5.16981 -1.08248 19.838
RightToes  -1.33073e-015 0 -3.6325e-017
Spine  21.4697 0.3265 -3.43893
Spine1  -12.8503 -0.348114 2.12168
HEad  -12.5153 6.57305 -4.33102
LeftShoulder1  0.262435 2.03697 -10.7377
LeftArm  -52.1773 -0.8785 -18.8783
LeftForeArm  85.6018 -77.3947 -115.756
LeftHand  0.333077 6.20549 42.617
RightShoulder  0.590297 -0.789975 15.19
RightArm  -62.9052 -9.18201 22.4428
RightForeArm  63.7661 77.4614 108.58
RightHand  -3.02409 2.39155 -43.2969
LeftUpLeg  -18.3048 23.9064 6.00972
LeftLeg  41.1639 8.99843 8.74386
LeftFoot  -14.4745 -0.240465 -11.9547
LeftToes  -4.0021e-011 8.38769e-011 -3.99229e-011
130
root  0.777368 38.8988 -10.2417 28.3769 -87.4653 -29.7245
RightUpLeg  -18.0962 -30.7642 -8.1432
RightLeg  38.7276 6.80727 5.84355
RightFoot  -5.58901 -1.21044 22.9362
RightToes  -1.33073e-015 0 -3.6325e-017
Spine  19.7513 0.450449 -3.21625
Spine1  -13.0358 -0.307373 4.24217
HEad  -11.3387 7.27478 -4.52212
LeftShoulder1  0.80706 0.0456883 -16.8376
LeftArm  -50.7902 5.37512 -20.4934
LeftForeArm  90.5667 -76.7783 -120.859
LeftHand  0.422237 6.41036 43.4879
RightShoulder  0.999067 0.419035 19.2031
RightArm  -61.6323 -12.7272 23.4005
RightForeArm  64.4539 77.598 107.4
RightHand  -2.98793 2.52634 -42.1667
LeftUpLeg  -12.8695 23.0125 8.03546
LeftLeg  30.2639 11.1053 7.29752
LeftFoot  -7.79673 0.441081 -12.7368
LeftToes  -4.0021e-011 8.38769e-011 -3.99229e-011
131
root  0.555206 39.9037 -10.7379 46.1823 -87.1369 -47.0118
RightUpLeg  -12.5084 -25.0912 -9.64135
RightLeg  26.9243 -4.69083 -2.61343
RightFoot  -8.95526 -0.450579 18.2534
RightToes  -1.33073e-015 0 -3.6325e-017
Spine  17.8656 0.552552 -2.49981
Spine1  -12.8396 -0.195406 5.9249
HEad  -9.8158 7.5601 -4.39666
LeftShoulder1  1.08541 -0.716291 -19.2712
LeftArm  -50.7852 8.81193 -22.8747
LeftForeArm  91.7909 -76.271 -123.817
LeftHand  0.531895 6.66519 44.1238
RightShoulder  1.10631 0.678274 20.167
RightArm  -61.4144 -15.1215 24.7912
RightForeArm  67.1899 77.5356 108.86
RightHand  -2.95039 2.67397 -40.9837
LeftUpLeg  -8.57356 21.7169 9.68058
LeftLeg  20.8522 13.8674 5.89608
LeftFoot  -1.65131 1.13351 -13.2163
LeftToes  -4.0021e-011 8.38769e-011 -3.99229e-011
132
root  0.446171 40.3703 -11.2221 53.1535 -86.9606 -53.3514
RightUpLeg  -8.72115 -17.2063 -11.1927
RightLeg  18.3324 -22.6938 -8.36495
RightFoot  -10.1455 -0.166285 9.90993
RightToes  -1.33073e-015 0 -3.6325e-017
Spine  15.9901 0.44414 -1.24928
Spine1  -12.1137 -0.14113 5.80055
HEad  -8.62136 7.29686 -3.93377
LeftShoulder1  0.988471 -0.491405 -18.1201
LeftArm  -51.38 8.18795 -24.1773
LeftForeArm  92.0441 -75.7831 -126.199
LeftHand  0.611258 6.85364 44.3636
RightShoulder  0.957328 0.287404 18.8498
RightArm  -62.2904 -15.5531 25.4051
RightForeArm  72.1965 77.0541 114.318
RightHand  -2.83339 2.55098 -40.0531
LeftUpLeg  -6.0075 19.1933 10.89
LeftLeg  14.6717 17.2238 4.30138
LeftFoot  2.16527 1.59081 -13.5082
LeftToes  -4.0021e-011 8.38769e-011 -3.99229e-011
133
root  0.47496 40.2672 -11.7523 49.0696 -87.081 -48.5311
RightUpLeg  -6.99594 -12.2028 -13.2991
RightLeg  13.8159 -31.5554 -8.23702
RightFoot  -11.061 -0.0851744 7.02283
RightToes  -1.33073e-015 0 -3.6325e-017
Spine  15.4702 0.164692 -0.0508431
Spine1  -12.52 -0.156362 4.32267
HEad  -7.54055 6.73307 -3.29222
LeftShoulder1  0.626393 0.484075 -13.6265
LeftArm  -52.6425 4.57508 -24.1372
LeftForeArm  90.363 -75.6958 -126.274
LeftHand  0.550787 6.73857 43.4058
RightShoulder  0.664963 -0.547626 15.8327
RightArm  -64.0089 -13.975 24.4476
RightForeArm  74.3794 76.6475 117.713
RightHand  -2.66197 2.4264 -38.359
LeftUpLeg  -6.12831 18.9421 11.2399
LeftLeg  13.2159 17.2387 3.53188
LeftFoot  2.04908 1.5716 -13.4314
LeftToes  -4.0021e-011 8.38769e-011 -3.99229e-011
134
root  0.734715 39.6282 -12.3189 45.6202 -87.6507 -44.2046
RightUpLeg  -8.89268 -16.2061 -15.0839
RightLeg  15.1059 -25.0954 -6.88837
RightFoot  -13.522 0.117981 10.6247
RightToes  -1.33073e-015 0 -3.6325e-017
Spine  17.5805 -0.0611646 0.709821
Spine1  -15.4643 -0.103717 2.42582
HEad  -6.81497 6.17817 -2.95891
LeftShoulder1  0.199843 2.15573 -6.86791
LeftArm  -55.0698 -0.119139 -23.1436
LeftForeArm  82.9374 -76.4719 -120.78
LeftHand  0.309433 6.18437 40.8574
RightShoulder  0.296896 -1.88475 11.1309
RightArm  -66.1891 -10.5778 22.4143
RightForeArm  69.8787 76.9732 114.368
RightHand  -2.43339 2.375 -35.5018
LeftUpLeg  -9.95144 22.3897 10.5705
LeftLeg  18.0863 13.1297 4.73137
LeftFoot  -1.95381 1.09201 -13.1029
LeftToes  -4.0021e-011 8.38769e-011 -3.99229e-011
135
root  1.28688 38.4168 -12.856 34.3121 -89.2745 -32.6449
RightUpLeg  -15.2629 -24.4473 -15.545
RightLeg  24.091 -13.8624 -6.96362
RightFoot  -15.3408 0.39093 14.3165
RightToes  -1.33073e-015 0 -3.6325e-017
Spine  22.195 0.0926989 1.64612
Spine1  -19.2669 0.332896 0.380853
HEad  -8.06794 5.65596 -3.32941
LeftShoulder1  -0.056377 4.2137 0.512655
LeftArm  -58.9283 -4.55057 -20.5803
LeftForeArm  63.6307 -77.8725 -104.073
LeftHand  0.0607426 5.52907 38.4236
RightShoulder  -0.00661458 -3.56272 4.90217
RightArm  -69.0807 -5.9549 19.6115
RightForeArm  54.3476 77.7949 101.453
RightHand  -2.24622 2.1629 -33.8424
LeftUpLeg  -16.4983 24.3524 10.618
LeftLeg  29.6386 10.4795 6.76346
LeftFoot  -7.67186 0.473538 -13.4623
LeftToes  -4.0021e-011 8.38769e-011 -3.99229e-011
136
root  2.01754 36.637 -13.3584 145.534 -87.5249 -144.917
RightUpLeg  -23.8707 -27.6575 -15.1917
RightLeg  37.6256 -8.50377 -7.25456
RightFoot  -14.532 0.31836 14.8548
RightToes  -1.33073e-015 0 -3.6325e-017
Spine  27.2321 0.723916 2.67299
Spine1  -20.609 1.27898 -1.47766
HEad  -12.6855 5.06388 -4.27382
LeftShoulder1  -0.0442535 6.22689 7.79569
LeftArm  -64.2437 -7.50895 -15.9408
LeftForeArm  27.2638 -77.3305 -70.1777
LeftHand  0.0107134 5.38368 38.3385
RightShoulder  -0.102677 -5.00159 -1.97598
RightArm  -73.4861 -1.65033 15.0228
RightForeArm  21.1739 77.2867 73.3656
RightHand  -2.39637 2.15141 -35.9022
LeftUpLeg  -22.9917 26.798 12.4951
LeftLeg  43.9545 7.35168 7.889
LeftFoot  -12.3351 -0.0550219 -14.7935
LeftToes  -4.0021e-011 8.38769e-011 -3.99229e-011
137
root  2.67989 34.6502 -13.9194 166.664 -85.4057 -167.381
RightUpLeg  -31.9328 -29.326 -14.3907
RightLeg  49.8007 -4.48827 -6.00733
RightFoot  -12.2619 0.0327843 14.5883
RightToes  -1.33073e-015 0 -3.6325e-017
Spine  30.4351 1.40022 2.8074
Spine1  -18.7161 2.17657 -2.45956
HEad  -19.8164 4.45866 -5.38152
LeftShoulder1  0.199796 8.08369 14.631
LeftArm  -69.7693 -8.17826 -10.1641
LeftForeArm  -6.61923 -71.0269 -38.3817
LeftHand  0.284346 6.11861 40.5709
RightShoulder  -0.0389304 -5.83019 -7.72073
RightArm  -78.8725 1.09075 7.77387
RightForeArm  -16.8162 71.4689 41.1615
RightHand  -2.80512 2.54398 -39.7427
LeftUpLeg  -28.0777 29.5248 15.2197
LeftLeg  56.0216 4.32816 7.43558
LeftFoot  -15.1665 -0.440527 -15.8856
LeftToes  -4.0021e-011 8.38769e-011 -3.99229e-011
138
root  3.06126 33.1089 -14.551 170.541 -84.8515 -171.448
RightUpLeg  -37.7329 -31.187 -13.6042
RightLeg  57.8396 -1.69589 -3.42802
RightFoot  -11.4599 -0.0614611 15.0557
RightToes  -1.33073e-015 0 -3.6325e-017
Spine  31.2018 1.59209 2.0508
Spine1  -15.5119 2.32363 -2.31132
HEad  -26.614 3.9749 -6.46314
LeftShoulder1  0.534139 9.73729 19.46
LeftArm  -73.4157 -7.44558 -5.57389
LeftForeArm  -23.4845 -62.6421 -24.3763
LeftHand  0.815217 7.43667 42.9249
RightShoulder  0.031378 -6.46551 -10.7669
RightArm  -82.7449 2.3553 0.42065
RightForeArm  -37.5092 62.4738 24.9619
RightHand  -2.88917 2.48315 -41.0939
LeftUpLeg  -32.0482 30.8293 16.8577
LeftLeg  63.1755 2.85187 6.82165
LeftFoot  -17.0217 -0.707244 -16.1969
LeftToes  -4.0021e-011 8.38769e-011 -3.99229e-011
139
root  3.10989 32.476 -15.2102 175.167 -85.6219 -175.541
RightUpLeg  -40.2169 -32.7487 -12.9653
RightLeg  61.6263 -0.933257 -2.44929
RightFoot  -13.0654 0.142205 15.3509
RightToes  -1.33073e-015 0 -3.6325e-017
Spine  30.5412 1.28747 1.47498
Spine1  -13.2341 1.87723 -1.88163
HEad  -30.3672 3.74506 -7.35191
LeftShoulder1  0.70959 10.648 20.9755
LeftArm  -74.4172 -6.7156 -5.5005
LeftForeArm  -27.897 -60.6393 -22.7717
LeftHand  1.20104 8.34118 43.9951
RightShoulder  0.0421196 -7.07065 -10.9588
RightArm  -82.7073 2.05566 -1.53098
RightForeArm  -42.1653 60.1065 22.9005
RightHand  -2.56736 1.85484 -39.7943
LeftUpLeg  -34.0471 30.3762 17.3612
LeftLeg  65.1267 2.42745 6.46351
LeftFoot  -17.7487 -0.854939 -17.0556
LeftToes  -4.0021e-011 8.38769e-011 -3.99229e-011
